<svg id="レイヤー_1" data-name="レイヤー 1" xmlns="http://www.w3.org/2000/svg" viewBox="0 0 640 193.52"><title>logo</title><path d="M55.18,108.43c.37-5.82.3-11.81.43-17.64C56,72.87,56,54.93,56.67,37c.41-11.6,5.71-21.54,16.9-27.13,4.79-2.4,11.8-2.55,17.44-1.7,13.87,2.11,23.36,7.64,26.76,21.46a20.6,20.6,0,0,1,.69,4.8c.06,18.57.17,37.14,0,55.71-.07,10.41-1,20.83-.65,31.22a25.08,25.08,0,0,0,4.27,12.14c3.95,6.1,12.13,6.12,15.52-.25,3.1-5.82,5.67-12.46,6-18.85.86-17.71.34-35.48.52-53.22.11-11-.76-22.25,1.06-33.07C147.67,13.46,161.14,5,177.74,7.26,197,9.91,204.64,21.55,205,37.43c.38,15.48,1.25,31,.74,46.44-.67,20.48-1.71,41-4,61.37-2.73,24.22-21,43.4-47.09,48.28-27.74,5.19-54.46,1.1-78.06-14.2a43.1,43.1,0,0,1-17-21.65C57,150.16,55,141,55,134.75,55,134.75,55.18,117.25,55.18,108.43Zm55.9-72.55c-.49-13.8-15.3-21.89-25.79-19.63-2.19.47-3.83,3.06-5.73,4.67,2.11,1,4.18,2.91,6.34,3,8.48.34,14.15,4.2,15.45,12,.64,3.79,3.31,4.63,6.25,4.24C109,39.94,109.93,37.36,111.08,35.88ZM171.7,14.2c-1,.81-4.2,2.17-4.82,4.2-1.25,4.08,3,3.38,5.54,3.71,7.29.94,12.64,5.47,14.53,12.41.43,1.58.3,3.56,1.31,4.67a8,8,0,0,0,5,2.36c1,0,2.93-1.87,3.13-3.09C198.14,28,185.16,14.36,171.7,14.2ZM105,127.39c-1.21,2.67-2.45,4.21-2.52,5.78-.34,7.67,10.07,18.31,18.52,18.62,1.92.08,3.94-2,5.91-3-1.23-1.27-2.19-3.12-3.72-3.7-7-2.64-12.88-6-14.39-13.56C108.56,130.39,107,129.5,105,127.39Z" transform="translate(-55 -3.24)" style="fill:#1a1a1a"/><path d="M429.64,66.53c-.11-5.28-.18-10.69-.18-15.93,0-1.65,0-3.2.05-4.81,0-.1,0-.2,0-.31,0-.43,0-.9-.06-1.32-.11-9.36.24-19.15,4.42-27.87,3.93-8.18,13.33-10.15,22-10.64A56.08,56.08,0,0,1,473.7,7.6a19.36,19.36,0,0,1,13.69,13.94,100.39,100.39,0,0,1,3.35,24c.24,25.25-.33,50.51-.35,75.77a100,100,0,0,1-6,35.5c-7,18.57-21,29.64-41.9,34.14-23.17,5-45,1.4-66.48-6.74-4-1.52-5.52-3.42-5.42-7.55.36-14.68-5-27-19.84-34.17-4-1.93-9-2.14-13.67-2.83-3.23-.48-7.3-4.08-7-7a3,3,0,0,1,1.62-2.19c13.1-3.79,20.57-12.92,26.25-23.54,13.14-24.54,8.3-48-5.54-70.81a51.59,51.59,0,0,0-6-7.32c-2.47-2.75-2.16-7.74,1.56-11.54C353.71,11.47,360,6.49,369.33,6.48l.79,0c.11,0,1.13,0,1.52,0,1.85,0,3.69-.13,5.53-.11,5.19.06,10.33.64,15.22,2.93,11.61,5.43,14.38,15,14.37,25.79,0,8.79-.65,17.59-.73,26.38-.17,19.09-.31,38.18-.11,57.26a40.17,40.17,0,0,0,2.43,13.4c2.71,7.34,13.72,9.27,18.37,3.39a12.93,12.93,0,0,0,2.73-7.23c.27-12.37.12-24.75.12-37.12M373.94,13.18c-.57.4-2.8,1.21-3.14,2.46-.3,1.09,1.15,3.22,2.45,3.93,2.37,1.31,5.39,1.61,7.81,2.86,6.55,3.36,9.53,8.84,9.71,15.58.08,3,1,5.61,4.44,5.5,4-.14,3.93-3.55,4-6.28a38.44,38.44,0,0,0-.7-4.32C397.21,21.2,388,13.33,373.94,13.18Zm86.33,1.94a15.29,15.29,0,0,0-4.07,1.11c-1.32.74-3.19,2.16-3.09,3.13.12,1.21,1.87,2.46,3.2,3.33.75.49,2.06.25,3.12.37,7.58.87,12.81,4.08,13.95,11.56a34,34,0,0,0,1.9,8.05,5.49,5.49,0,0,0,3.86,2.81c1.05.07,2.63-1.74,3.28-3a5.81,5.81,0,0,0,0-3.82c-.9-3.47-2-6.91-3.08-10.34C477.07,21.21,468.71,15.31,460.27,15.12ZM414.09,153.18c.67-.55,3.25-1.77,3.18-2.85-.11-1.9-1.55-5.1-2.95-5.35-8.62-1.53-13.63-6-15.85-13.67-.31-1.05-2.12-1.72-3.23-2.56-.93,1.13-2.28,2.15-2.72,3.43C388.35,144.15,402.91,152.55,414.09,153.18Z" transform="translate(-55 -3.24)" style="fill:#1a1a1a"/><path d="M695,108.28c-.14,16.14-.3,32.3-1.12,48.42a97.23,97.23,0,0,1-3.77,22.07c-3.09,10.67-12,16.53-24,16.57-22.79.09-34.28-8.47-36-29.85a8.78,8.78,0,0,1,1-4.68,130.6,130.6,0,0,0,15.67-57.87c.68-19.64-.39-39.49-8.3-58.27A36.46,36.46,0,0,0,633.78,37,16,16,0,0,1,630.4,26.5a22.29,22.29,0,0,1,4-11.45C640,6.56,652.34,1.81,663,3.62c18.59,3.16,26.6,10.14,30.24,30.9.93,5.28.86,10.71,1.25,16.07M685,35.77c-.49-15.2-6.22-21.89-19.89-24.46-4.05-.77-8.84,1.08-8.68,3.62.25,3.89,3.59,4.78,7.13,5.16.18,0,.36,0,.53,0,6.47.41,9.42,2.64,11.17,8.52.71,2.35.78,5,2.14,7,1,1.45,3.54,2.27,5.56,2.67C683.55,38.38,684.7,36.13,685,35.77Z" transform="translate(-55 -3.24)" style="fill:#1a1a1a"/><path d="M363.16,169.58c-.93-11.85-14.19-24.23-26-23.71-9.12.4-9.19.42-12.68-7.28-1.41-3.11-2.43-6.36-3.66-9.62,4.61-2,9.08-3.29,12.77-5.63,17.34-11,23.62-27.35,25.09-45.75.87-10.9-3.17-20.73-8-30.47-6.39-12.83-15.14-24.4-28.33-31.17C303.78,6.43,283,3.86,261.76,6.51c-18.29,2.29-32.88,11.06-46.07,22.43-5.11,4.42-6.05,9.76-5.8,15.42,1.17,26.84,3.86,53.64,1.83,80.58a119,119,0,0,1-11.53,42.78c-2.48,5.17-1.3,9.31,2.18,13,10.14,10.66,22.73,14.67,38.13,11.63,10.83-2.13,19.59-10.74,20.1-21,.5-9.9,1-19.79,1.59-30.09,6.1,9.34,11.9,18.38,17.85,27.34,6.15,9.27,13.64,17.72,24,22.92,12,6,25.43,6.65,38.28,2.85C354.91,190.69,364.26,183.69,363.16,169.58Zm-63.3-94.2c-.63,11-9.13,20.29-20.46,20.24-10.31,0-18.91-9.46-18.8-20,0-8.87,9.3-17.48,18.68-17.38C289.42,58.39,300.32,67.3,299.86,75.38Zm7.06-49.22c-2.9-.56-4.39-2-3.45-4.33.57-1.43,2.72-2.33,4.83-4,5.67,2.89,11.75,4.69,15.85,8.36,7.5,6.71,15.29,13.58,18.23,23.4.52,1.72,1.42,3.61,1,5.19s-2.18,2.86-3.35,4.27c-1.22-1.2-3.2-2.24-3.54-3.62-3-12-10.74-20.64-22.32-26.53A28.2,28.2,0,0,0,306.92,26.16Zm39.3,135c-.16,3.91-2.76,6.2-7,6.23-5.33.05-5.63-3.45-6.11-6.83-.57-4.48,2.31-5.24,6.19-5.34C343.91,155.06,346.4,156.64,346.22,161.12Z" transform="translate(-55 -3.24)" style="fill:#1a1a1a"/><path d="M633.44,51.06a84.73,84.73,0,0,0-14.38-24C607.64,13.63,590.54,8.65,572.87,6.41,560,4.77,547.25,4.5,534.18,8.13S509.75,17,500.93,26.47c-1.62,1.74-3.33,4.11-3.42,6.25-.8,19.37-1.3,38.75-1.77,58.14-.09,3.55-.09,7-.11,10.58,0,2.35-.14,4.77.05,7.09.05.63-.07,1.94,0,2.58a15.16,15.16,0,0,1,0,2.61c0,2.43.05,4.84,0,7.15-.08,4.32.16,8.27-.2,12.59-.71,8.43-1.57,16.95-4.28,25.26-.8,2.48.5,7.06,2.6,8.53,9.1,6.38,18.32,13,28.5,17.64,26.37,12.08,53,11.69,77.93-3.3,8.29-5,17.62-13.92,22.09-21.64,12.62-21.83,19.59-42.54,18.38-69.86-.27-13.7-1.11-20.31-2.41-25.43C637.17,60.27,635.76,57,633.44,51.06Zm-64.52,73.88c-6.71,6.48-20.33,3.67-25.12-4.82-3.26-5.78-4.88-12.44-6.56-18.85-2-7.79,0-15.45,2.21-23,2.3-8,9-13.27,17.64-14,5.83-.48,15.63,6,19.22,11.22,4.24,6.21,5.84,12.76,5.79,21.51C583.43,107.37,577.5,116.66,568.92,124.94ZM626,74.57c-1.44-1.23-3.58-2.21-4.18-3.71-2.48-6.24-4-12.85-6.81-18.92A44.73,44.73,0,0,0,590,28.72c-1-.38-2.3-.61-2.8-1.31-1-1.35-2-3-2-4.49,0-.65,3.09-2.13,3.93-1.73,6.05,2.86,12.69,5.3,17.6,9.42,7.69,6.43,14.54,13.9,18,23.23C626.7,59,628,64.4,629.8,70.3Zm-96.18,44.71A32.62,32.62,0,0,1,534,123c2.64,3.41,4.72,7.23,7.68,10.35,1.57,1.65,4.51,2.21,6.84,3.24s4.65,1.62,6.5,3c.88.64,1.11,2.73.72,3.91a4.31,4.31,0,0,1-3.11,2.14c-9.13.83-25.45-12.39-26-20.87,0-.17,0-.33,0-1.88Z" transform="translate(-55 -3.24)" style="fill:#1a1a1a"/></svg>