<?xml version="1.0" encoding="utf-8"?>
<!-- Generator: Adobe Illustrator 24.0.0, SVG Export Plug-In . SVG Version: 6.00 Build 0)  -->
<svg version="1.1" id="logo" xmlns="http://www.w3.org/2000/svg" xmlns:xlink="http://www.w3.org/1999/xlink" x="0px" y="0px"
	 viewBox="0 0 640 193.5" style="enable-background:new 0 0 640 193.5;" xml:space="preserve">
<title>logo</title>
<path d="M1.2,105.2c0.4-5.8,0.3-11.8,0.4-17.6C2,69.6,2,51.7,2.7,33.8C3.1,22.2,8.4,12.2,19.6,6.6C24.4,4.2,31.4,4.1,37,4.9
	C50.9,7,60.4,12.6,63.8,26.4c0.4,1.6,0.6,3.2,0.7,4.8c0.1,18.6,0.2,37.1,0,55.7c-0.1,10.4-1,20.8-0.7,31.2c0.3,4.3,1.8,8.5,4.3,12.1
	c3.9,6.1,12.1,6.1,15.5-0.2c3.1-5.8,5.7-12.5,6-18.8c0.9-17.7,0.3-35.5,0.5-53.2c0.1-11-0.8-22.2,1.1-33.1
	c2.5-14.7,16-23.1,32.6-20.9C143,6.7,150.6,18.3,151,34.2c0.4,15.5,1.2,31,0.7,46.4c-0.7,20.5-1.7,41-4,61.4
	c-2.7,24.2-21,43.4-47.1,48.3c-27.7,5.2-54.5,1.1-78.1-14.2c-7.9-5.2-13.9-12.8-17-21.6C3,146.9,1,137.8,1,131.5
	C1,131.5,1.2,114,1.2,105.2z M57.1,32.6C56.6,18.8,41.8,10.7,31.3,13c-2.2,0.5-3.8,3.1-5.7,4.7c2.1,1,4.2,2.9,6.3,3
	c8.5,0.3,14.2,4.2,15.4,12c0.6,3.8,3.3,4.6,6.2,4.2C55,36.7,55.9,34.1,57.1,32.6z M117.7,11c-1,0.8-4.2,2.2-4.8,4.2
	c-1.2,4.1,3,3.4,5.5,3.7c7.3,0.9,12.6,5.5,14.5,12.4c0.4,1.6,0.3,3.6,1.3,4.7c1.3,1.4,3.1,2.2,5,2.4c1,0,2.9-1.9,3.1-3.1
	C144.1,24.8,131.2,11.1,117.7,11z M51,124.2c-1.2,2.7-2.4,4.2-2.5,5.8c-0.3,7.7,10.1,18.3,18.5,18.6c1.9,0.1,3.9-2,5.9-3
	c-1.2-1.3-2.2-3.1-3.7-3.7c-7-2.6-12.9-6-14.4-13.6C54.6,127.2,53,126.3,51,124.2z"/>
<path d="M374.6,63.3c-0.1-5.3-0.2-10.7-0.2-15.9c0-1.7,0-3.2,0-4.8c0-0.1,0-0.2,0-0.3c0-0.4,0-0.9-0.1-1.3
	c-0.1-9.4,0.2-19.1,4.4-27.9c3.9-8.2,13.3-10.1,22-10.6c6-0.3,12,0.3,17.8,2c6.7,1.8,12,7.2,13.7,13.9c2.1,7.8,3.2,15.9,3.4,24
	c0.2,25.3-0.3,50.5-0.4,75.8c0.2,12.1-1.9,24.1-6,35.5c-7,18.6-21,29.6-41.9,34.1c-23.2,5-45,1.4-66.5-6.7c-4-1.5-5.5-3.4-5.4-7.6
	c0.4-14.7-5-27-19.8-34.2c-4-1.9-9-2.1-13.7-2.8c-3.2-0.5-7.3-4.1-7-7c0.2-0.9,0.8-1.8,1.6-2.2c13.1-3.8,20.6-12.9,26.2-23.5
	c13.1-24.5,8.3-48-5.5-70.8c-1.8-2.6-3.8-5.1-6-7.3c-2.5-2.8-2.2-7.7,1.6-11.5c5.7-5.8,12-10.8,21.4-10.8h0.8c0.1,0,1.1,0,1.5,0
	c1.9,0,3.7-0.1,5.5-0.1c5.2,0.1,10.3,0.6,15.2,2.9c11.6,5.4,14.4,15,14.4,25.8c0,8.8-0.6,17.6-0.7,26.4c-0.2,19.1-0.3,38.2-0.1,57.3
	c0,4.6,0.9,9.1,2.4,13.4c2.7,7.3,13.7,9.3,18.4,3.4c1.6-2.1,2.6-4.6,2.7-7.2c0.3-12.4,0.1-24.8,0.1-37.1 M318.9,9.9
	c-0.6,0.4-2.8,1.2-3.1,2.5c-0.3,1.1,1.1,3.2,2.5,3.9c2.4,1.3,5.4,1.6,7.8,2.9c6.5,3.4,9.5,8.8,9.7,15.6c0.1,3,1,5.6,4.4,5.5
	c4-0.1,3.9-3.5,4-6.3c-0.2-1.5-0.4-2.9-0.7-4.3C342.2,18,333,10.1,318.9,9.9z M405.3,11.9c-1.4,0.2-2.8,0.6-4.1,1.1
	c-1.3,0.7-3.2,2.2-3.1,3.1c0.1,1.2,1.9,2.5,3.2,3.3c0.8,0.5,2.1,0.2,3.1,0.4c7.6,0.9,12.8,4.1,14,11.6c0.3,2.8,0.9,5.5,1.9,8
	c0.8,1.5,2.2,2.5,3.9,2.8c1,0.1,2.6-1.7,3.3-3c0.4-1.2,0.4-2.6,0-3.8c-0.9-3.5-2-6.9-3.1-10.3C422.1,18,413.7,12.1,405.3,11.9
	L405.3,11.9z M359.1,149.9c0.7-0.6,3.2-1.8,3.2-2.9c-0.1-1.9-1.5-5.1-3-5.4c-8.6-1.5-13.6-6-15.9-13.7c-0.3-1-2.1-1.7-3.2-2.6
	c-0.9,1.1-2.3,2.1-2.7,3.4C333.4,140.9,347.9,149.3,359.1,149.9z"/>
<path d="M639,105c-0.1,16.1-0.3,32.3-1.1,48.4c-0.4,7.5-1.7,14.9-3.8,22.1c-3.1,10.7-12,16.5-24,16.6c-22.8,0.1-34.3-8.5-36-29.9
	c-0.1-1.6,0.2-3.2,1-4.7c9.6-17.8,15-37.6,15.7-57.9c0.7-19.6-0.4-39.5-8.3-58.3c-1.2-2.7-2.8-5.3-4.7-7.7c-2.3-3-3.5-6.7-3.4-10.5
	c0.2-4.1,1.6-8.1,4-11.4C584,3.3,596.3-1.4,607,0.4c18.6,3.2,26.6,10.1,30.2,30.9c0.9,5.3,0.9,10.7,1.2,16.1 M629,32.5
	c-0.5-15.2-6.2-21.9-19.9-24.5c-4-0.8-8.8,1.1-8.7,3.6c0.2,3.9,3.6,4.8,7.1,5.2c0.2,0,0.4,0,0.5,0c6.5,0.4,9.4,2.6,11.2,8.5
	c0.7,2.4,0.8,5,2.1,7c1,1.5,3.5,2.3,5.6,2.7C627.5,35.1,628.7,32.9,629,32.5z"/>
<path d="M308.2,166.3c-0.9-11.9-14.2-24.2-26-23.7c-9.1,0.4-9.2,0.4-12.7-7.3c-1.4-3.1-2.4-6.4-3.7-9.6c4.6-2,9.1-3.3,12.8-5.6
	c17.3-11,23.6-27.3,25.1-45.8c0.9-10.9-3.2-20.7-8-30.5c-6.4-12.8-15.1-24.4-28.3-31.2c-18.6-9.4-39.4-12-60.6-9.3
	c-18.3,2.3-32.9,11.1-46.1,22.4c-5.1,4.4-6.1,9.8-5.8,15.4c1.2,26.8,3.9,53.6,1.8,80.6c-1.1,14.9-5,29.4-11.5,42.8
	c-2.5,5.2-1.3,9.3,2.2,13c10.1,10.7,22.7,14.7,38.1,11.6c10.8-2.1,19.6-10.7,20.1-21c0.5-9.9,1-19.8,1.6-30.1
	c6.1,9.3,11.9,18.4,17.9,27.3c6.1,9.3,13.6,17.7,24,22.9c12,6,25.4,6.6,38.3,2.9C299.9,187.4,309.3,180.4,308.2,166.3z M244.9,72.1
	c-0.6,11-9.1,20.3-20.5,20.2c-10.3,0-18.9-9.5-18.8-20c0-8.9,9.3-17.5,18.7-17.4C234.4,55.1,245.3,64.1,244.9,72.1L244.9,72.1z
	 M251.9,22.9c-2.9-0.6-4.4-2-3.5-4.3c0.6-1.4,2.7-2.3,4.8-4c5.7,2.9,11.8,4.7,15.9,8.4c7.5,6.7,15.3,13.6,18.2,23.4
	c0.5,1.7,1.4,3.6,1,5.2s-2.2,2.9-3.4,4.3c-1.2-1.2-3.2-2.2-3.5-3.6c-3-12-10.7-20.6-22.3-26.5C256.9,24.4,254.5,23.5,251.9,22.9z
	 M291.2,157.9c-0.2,3.9-2.8,6.2-7,6.2c-5.3,0.1-5.6-3.4-6.1-6.8c-0.6-4.5,2.3-5.2,6.2-5.3C288.9,151.8,291.4,153.4,291.2,157.9
	L291.2,157.9z"/>
<path d="M578.4,47.8c-3.4-8.7-8.3-16.9-14.4-24c-11.4-13.4-28.5-18.4-46.2-20.7c-12.9-1.6-25.6-1.9-38.7,1.7s-24.4,8.9-33.2,18.3
	c-1.6,1.7-3.3,4.1-3.4,6.3c-0.8,19.4-1.3,38.8-1.8,58.1c-0.1,3.6-0.1,7-0.1,10.6c0,2.3-0.1,4.8,0,7.1c0,0.6-0.1,1.9,0,2.6
	c0.1,0.9,0.1,1.7,0,2.6c0,2.4,0,4.8,0,7.2c-0.1,4.3,0.2,8.3-0.2,12.6c-0.7,8.4-1.6,16.9-4.3,25.3c-0.8,2.5,0.5,7.1,2.6,8.5
	c9.1,6.4,18.3,13,28.5,17.6c26.4,12.1,53,11.7,77.9-3.3c8.3-5,17.6-13.9,22.1-21.6c12.6-21.8,19.6-42.5,18.4-69.9
	c-0.3-13.7-1.1-20.3-2.4-25.4C582.2,57,580.8,53.8,578.4,47.8z M513.9,121.7c-6.7,6.5-20.3,3.7-25.1-4.8c-3.3-5.8-4.9-12.4-6.6-18.8
	c-2-7.8,0-15.4,2.2-23c2.3-8,9-13.3,17.6-14c5.8-0.5,15.6,6,19.2,11.2c4.2,6.2,5.8,12.8,5.8,21.5
	C528.4,104.1,522.5,113.4,513.9,121.7z M571,71.3c-1.4-1.2-3.6-2.2-4.2-3.7c-2.5-6.2-4-12.9-6.8-18.9c-4.9-10.7-13.9-19.1-25-23.2
	c-1-0.4-2.3-0.6-2.8-1.3c-1-1.4-2-3-2-4.5c0-0.6,3.1-2.1,3.9-1.7c6,2.9,12.7,5.3,17.6,9.4c7.7,6.4,14.5,13.9,18,23.2
	c2,5.2,3.3,10.6,5.1,16.5L571,71.3z M474.8,116c1.5,1.1,2.9,2.4,4.2,3.7c2.6,3.4,4.7,7.2,7.7,10.3c1.6,1.6,4.5,2.2,6.8,3.2
	s4.7,1.6,6.5,3c0.9,0.6,1.1,2.7,0.7,3.9c-0.7,1.2-1.8,1.9-3.1,2.1c-9.1,0.8-25.5-12.4-26-20.9c0-0.2,0-0.3,0-1.9L474.8,116z"/>
</svg>
